<svg width="30" height="28" viewBox="0 0 30 28" fill="none" xmlns="http://www.w3.org/2000/svg">
<path d="M25.5 5H21V3.5C21 2.70435 20.6839 1.94129 20.1213 1.37868C19.5587 0.81607 18.7956 0.5 18 0.5H12C11.2044 0.5 10.4413 0.81607 9.87868 1.37868C9.31607 1.94129 9 2.70435 9 3.5V5H4.5C3.30653 5 2.16193 5.47411 1.31802 6.31802C0.474106 7.16193 0 8.30653 0 9.5V23C0 24.1935 0.474106 25.3381 1.31802 26.182C2.16193 27.0259 3.30653 27.5 4.5 27.5H25.5C26.6935 27.5 27.8381 27.0259 28.682 26.182C29.5259 25.3381 30 24.1935 30 23V9.5C30 8.30653 29.5259 7.16193 28.682 6.31802C27.8381 5.47411 26.6935 5 25.5 5ZM12 3.5H18V5H12V3.5ZM27 23C27 23.3978 26.842 23.7794 26.5607 24.0607C26.2794 24.342 25.8978 24.5 25.5 24.5H4.5C4.10218 24.5 3.72064 24.342 3.43934 24.0607C3.15804 23.7794 3 23.3978 3 23V14.585L10.02 17C10.1793 17.0216 10.3407 17.0216 10.5 17H19.5C19.6627 16.997 19.8242 16.9718 19.98 16.925L27 14.585V23ZM27 11.42L19.26 14H10.74L3 11.42V9.5C3 9.10218 3.15804 8.72064 3.43934 8.43934C3.72064 8.15804 4.10218 8 4.5 8H25.5C25.8978 8 26.2794 8.15804 26.5607 8.43934C26.842 8.72064 27 9.10218 27 9.5V11.42Z" fill="white"/>
</svg>
