<svg width="92" height="52" viewBox="0 0 92 52" fill="none" xmlns="http://www.w3.org/2000/svg">
<path d="M3.816 27.52C3.816 27.856 3.952 28.16 4.224 28.432C4.496 28.688 4.856 28.816 5.304 28.816C5.736 28.816 6.168 28.72 6.6 28.528C7.048 28.336 7.472 28.048 7.872 27.664V25.888H5.52C4.976 25.888 4.552 26.056 4.248 26.392C3.96 26.728 3.816 27.104 3.816 27.52ZM5.352 31.288C3.928 31.288 2.872 30.944 2.184 30.256C1.496 29.552 1.152 28.64 1.152 27.52C1.152 26.32 1.56 25.4 2.376 24.76C3.192 24.12 4.256 23.8 5.568 23.8H7.848C7.832 23.208 7.656 22.752 7.32 22.432C7 22.096 6.552 21.928 5.976 21.928C5.432 21.928 4.84 22.008 4.2 22.168C3.56 22.312 3.024 22.488 2.592 22.696L1.752 20.104C2.2 19.8 2.88 19.552 3.792 19.36C4.72 19.152 5.432 19.048 5.928 19.048C7.32 19.048 8.512 19.456 9.504 20.272C10.496 21.072 10.992 22.096 10.992 23.344V31H9.384L8.616 30.016C8.184 30.352 7.672 30.648 7.08 30.904C6.504 31.16 5.928 31.288 5.352 31.288ZM23.871 20.728C24.367 20.168 25.023 19.728 25.839 19.408C26.671 19.072 27.415 18.904 28.071 18.904C29.655 18.904 30.775 19.368 31.431 20.296C32.103 21.224 32.439 22.36 32.439 23.704V31H29.295V23.848C29.295 23.112 29.119 22.552 28.767 22.168C28.415 21.768 27.903 21.568 27.231 21.568C26.783 21.568 26.311 21.688 25.815 21.928C25.319 22.168 24.871 22.44 24.471 22.744C24.487 22.904 24.503 23.064 24.519 23.224C24.535 23.384 24.543 23.544 24.543 23.704V31H21.399V23.848C21.399 23.112 21.223 22.552 20.871 22.168C20.519 21.768 20.015 21.568 19.359 21.568C18.959 21.568 18.551 21.656 18.135 21.832C17.735 21.992 17.351 22.2 16.983 22.456V31H13.863V19.36H15.495L16.263 20.416C16.791 19.936 17.423 19.568 18.159 19.312C18.911 19.04 19.583 18.904 20.175 18.904C21.087 18.904 21.847 19.072 22.455 19.408C23.063 19.728 23.535 20.168 23.871 20.728ZM37.6129 27.52C37.6129 27.856 37.7489 28.16 38.0209 28.432C38.2929 28.688 38.6529 28.816 39.1009 28.816C39.5329 28.816 39.9649 28.72 40.3969 28.528C40.8449 28.336 41.2689 28.048 41.6689 27.664V25.888H39.3169C38.7729 25.888 38.3489 26.056 38.0449 26.392C37.7569 26.728 37.6129 27.104 37.6129 27.52ZM39.1489 31.288C37.7249 31.288 36.6689 30.944 35.9809 30.256C35.2929 29.552 34.9489 28.64 34.9489 27.52C34.9489 26.32 35.3569 25.4 36.1729 24.76C36.9889 24.12 38.0529 23.8 39.3649 23.8H41.6449C41.6289 23.208 41.4529 22.752 41.1169 22.432C40.7969 22.096 40.3489 21.928 39.7729 21.928C39.2289 21.928 38.6369 22.008 37.9969 22.168C37.3569 22.312 36.8209 22.488 36.3889 22.696L35.5489 20.104C35.9969 19.8 36.6769 19.552 37.5889 19.36C38.5169 19.152 39.2289 19.048 39.7249 19.048C41.1169 19.048 42.3089 19.456 43.3009 20.272C44.2929 21.072 44.7889 22.096 44.7889 23.344V31H43.1809L42.4129 30.016C41.9809 30.352 41.4689 30.648 40.8769 30.904C40.3009 31.16 39.7249 31.288 39.1489 31.288ZM56.3239 21.136L50.7079 28.48H56.3239L56.5639 31H46.9639L46.5559 29.344L52.0999 21.928H47.4439L46.8439 19.36H56.1559L56.3239 21.136ZM63.8171 31.288C61.9771 31.288 60.5371 30.736 59.4971 29.632C58.4731 28.512 57.9611 27.016 57.9611 25.144C57.9611 23.288 58.4971 21.808 59.5691 20.704C60.6571 19.6 62.1371 19.048 64.0091 19.048C65.9451 19.048 67.4411 19.624 68.4971 20.776C69.5691 21.912 70.1051 23.408 70.1051 25.264C70.1051 27.12 69.5291 28.592 68.3771 29.68C67.2251 30.752 65.7051 31.288 63.8171 31.288ZM66.8891 25.264C66.8891 24.16 66.6411 23.296 66.1451 22.672C65.6651 22.032 64.9771 21.712 64.0811 21.712C63.1691 21.712 62.4571 21.992 61.9451 22.552C61.4331 23.112 61.1771 23.968 61.1771 25.12C61.1771 26.272 61.3931 27.144 61.8251 27.736C62.2731 28.328 62.9531 28.624 63.8651 28.624C64.7611 28.624 65.4891 28.36 66.0491 27.832C66.6091 27.288 66.8891 26.432 66.8891 25.264ZM75.1654 20.608C75.6934 20.08 76.3494 19.664 77.1334 19.36C77.9334 19.056 78.6454 18.904 79.2694 18.904C80.8534 18.904 81.9734 19.368 82.6294 20.296C83.3014 21.224 83.6374 22.36 83.6374 23.704V31H80.5174V23.848C80.5174 23.112 80.3414 22.552 79.9894 22.168C79.6374 21.768 79.1254 21.568 78.4534 21.568C78.0054 21.568 77.5334 21.688 77.0374 21.928C76.5574 22.152 76.1174 22.416 75.7174 22.72V31H72.5974V19.36H74.2294L75.1654 20.608Z" fill="white"/>
<path d="M63.9724 40.6079C65.2605 36.9499 59.6146 37.7099 56.6307 38.5471C55.9867 37.4523 64.4232 34.8762 66.1621 36.5507C67.9009 38.2251 65.0672 44.4076 63.4572 45.6956C61.8472 46.9837 62.3624 45.1804 63.9724 40.6079Z" fill="#ED902B"/>
<path d="M60.9449 39.9645C39.8728 49.0322 19.5349 41.8536 12 37.1309C29.7103 54.004 48.7087 47.435 55.9216 44.4726C63.1345 41.5101 62.4261 40.4153 60.9449 39.9645Z" fill="#ED902B"/>
</svg>
